<?xml version="1.0" encoding="utf-8"?>
<!-- Generator: Adobe Illustrator 26.0.0, SVG Export Plug-In . SVG Version: 6.00 Build 0)  -->
<svg version="1.1" id="Capa_1" xmlns="http://www.w3.org/2000/svg" xmlns:xlink="http://www.w3.org/1999/xlink" x="0px" y="0px"
	 viewBox="0 0 780 658" style="enable-background:new 0 0 780 658;" xml:space="preserve">
<style type="text/css">
	.st0{fill:#23B0FF;}
</style>
<g>
	<path class="st0" d="M0.27,321.81c5.29-13.53,13.12-24.59,28.42-27.71c4.67-0.95,9.56-1.16,14.35-1.17
		c135.75-0.06,271.51-0.05,407.26-0.05c2.66,0,5.33,0,9.91,0c-15.66-15.65-30.28-29.62-44.05-44.37
		c-5.19-5.56-9.86-12.46-12.26-19.59c-5.02-14.9,1.83-31.11,15.08-39.69c13.1-8.49,29.67-7.81,41.97,1.82
		c2.59,2.03,5,4.31,7.33,6.63c34.11,34.07,68.21,68.15,102.28,102.26c19.35,19.37,19.34,39.6-0.02,58.97
		c-34.62,34.64-69.19,69.32-103.91,103.86c-15.01,14.93-34.55,16.93-49.53,5.52c-18.15-13.83-20.02-38.18-3.69-55.37
		c13.1-13.79,26.84-26.99,40.27-40.46c1.72-1.73,3.33-3.56,6.06-6.51c-4.11,0-6.78,0-9.45,0c-134.23,0-268.46-0.29-402.69,0.28
		c-22.95,0.1-39.38-6.75-47.31-29.21C0.27,331.96,0.27,326.89,0.27,321.81z"/>
	<path class="st0" d="M316.95,584.91c130.18,0,259.48,0,389.27,0c0-170.28,0-340.35,0-510.84c-129.45,0-258.75,0-389.27,0
		c0,2.49,0,5.14,0,7.8c0,33.49,0.28,66.98-0.1,100.47c-0.33,29.38-30.39,46.87-54.93,32.25c-11.27-6.71-17.76-16.97-17.84-30.04
		c-0.3-49.47-0.43-98.95,0.01-148.42c0.18-19.91,15.65-34.54,35.62-35.48c2.53-0.12,5.07-0.07,7.61-0.07c149.69,0,299.38,0,449.06,0
		c29.55,0,43.41,13.8,43.41,43.19c0,190.54,0,381.08,0,571.62c0,28.92-13.99,42.91-42.93,42.91c-149.94,0-299.89,0-449.83,0
		c-29.36,0-43.15-13.89-43.15-43.45c0-45.92-0.17-91.84,0.07-137.77c0.14-26.35,23.36-43.75,47.57-36.18
		c15.49,4.84,25.33,18.8,25.4,36.68c0.13,32.73,0.04,65.46,0.04,98.19C316.95,578.53,316.95,581.3,316.95,584.91z"/>
</g>
</svg>
