<?xml version="1.0" encoding="utf-8"?>
<!-- Generator: Adobe Illustrator 26.0.0, SVG Export Plug-In . SVG Version: 6.00 Build 0)  -->
<svg version="1.1" id="Capa_1" xmlns="http://www.w3.org/2000/svg" xmlns:xlink="http://www.w3.org/1999/xlink" x="0px" y="0px"
	 viewBox="0 0 836.5 547.41" style="enable-background:new 0 0 836.5 547.41;" xml:space="preserve">
<style type="text/css">
	.st0{fill:#FF256F;}
	.st1{fill:#23B0FF;}
</style>
<g>
	<path class="st0" d="M694.14,340.29c-12.02,0-22.38,0-32.74,0c-28.25-0.01-56.5-0.12-84.74,0.03c-10.05,0.05-15-4.2-14.96-14.57
		c0.15-35.22-0.06-70.44,0.12-105.65c0.06-11.86,3.78-15.08,16.79-15.12c33.67-0.12,67.33-0.04,101-0.04c4.23,0,8.46,0,14.53,0
		c0-5.13,0-9.61,0-14.09c0-57.28-0.02-114.55,0.02-171.83c0.01-15.63,2.68-18.35,18.12-18.39c35.21-0.07,70.43-0.08,105.64,0.01
		c14.93,0.04,18.56,3.66,18.56,18.47c0.03,169.9,0.04,339.79-0.01,509.69c0,15.12-3.31,18.48-18.37,18.54
		c-35.21,0.12-70.43,0.12-105.64,0c-15.96-0.05-18.27-2.39-18.29-18.2c-0.07-57.66-0.03-115.33-0.03-172.99
		C694.14,351.53,694.14,346.93,694.14,340.29z"/>
	<g>
		<path class="st1" d="M403.87,306.47c-10.15,26.52-20.29,53.04-30.44,79.56c-14.36,37.54-29.01,74.97-42.87,112.69
			c-3.68,10.02-9.29,13.78-19.74,13.58c-25.93-0.48-51.9-0.91-77.79,0.16c-13.54,0.56-20.1-4.78-25.19-16.67
			c-36.65-85.63-73.81-171.05-110.81-256.53C66.33,168.32,35.62,97.38,4.91,26.44c-0.77-1.77-1.58-3.53-2.28-5.33
			C-2.96,6.82,1.13,0.38,16.36,0.29c29.81-0.17,59.61-0.04,89.42-0.05c42.56-0.01,37.31-3.38,52.02,36.64
			c35.59,96.84,71.22,193.66,106.86,290.49c1.42,3.86,3.09,7.63,5.43,13.35c17.78-48.09,34.83-94.08,51.79-140.1
			c22.71-61.64,45.53-123.24,67.84-185.02c4.01-11.1,9.97-15.8,22.1-15.59c35.99,0.65,72,0.19,108,0.25
			c16.7,0.03,19.38,2.72,19.39,19.75c0.03,168.8,0.04,337.6,0,506.4c0,18.72-1.92,20.54-20.77,20.58
			c-30.97,0.06-61.94,0.09-92.91-0.02c-15.86-0.06-18.94-3.12-18.95-19.08c-0.07-70.07-0.02-140.15-0.06-210.22
			c0-3.6-0.34-7.21-0.52-10.81C405.29,306.72,404.58,306.59,403.87,306.47z"/>
		<path class="st1" d="M0.26,325.15c0-66.18,0-132.36,0.01-198.54c0-3.48-0.82-7.34,0.41-10.34c1.42-3.45,4.32-8.06,7.26-8.62
			c3.05-0.59,7.3,2.6,10.28,5.03c1.88,1.54,2.47,4.71,3.54,7.19c34.94,80.86,70.06,161.65,104.56,242.71
			c3.97,9.33,6.17,20.1,6.32,30.24c0.67,45.27,0.35,90.56,0.26,135.84c-0.03,16.09-2.12,18.23-18.12,18.29
			c-32.12,0.13-64.24,0.15-96.35-0.01c-15.33-0.08-18.12-2.98-18.14-18.6C0.21,460.61,0.26,392.88,0.26,325.15z"/>
	</g>
</g>
</svg>
