<?xml version="1.0" encoding="utf-8"?>
<!-- Generator: Adobe Illustrator 26.0.0, SVG Export Plug-In . SVG Version: 6.00 Build 0)  -->
<svg version="1.1" id="Capa_1" xmlns="http://www.w3.org/2000/svg" xmlns:xlink="http://www.w3.org/1999/xlink" x="0px" y="0px"
	 viewBox="0 0 16 16" style="enable-background:new 0 0 16 16;" xml:space="preserve">
<style type="text/css">
	.st0{fill:#FFFFFF;}
</style>
<path class="st0" d="M12.5,16c1.9,0,3.5-1.6,3.5-3.5S14.4,9,12.5,9S9,10.6,9,12.5S10.6,16,12.5,16 M12,13h-1c-0.3,0-0.5-0.2-0.5-0.5
	S10.7,12,11,12h1h1h1c0.3,0,0.5,0.2,0.5,0.5S14.3,13,14,13h-1H12z M11,5c0,1.7-1.3,3-3,3S5,6.7,5,5s1.3-3,3-3S11,3.3,11,5"/>
<path class="st0" d="M2,13c0,1,1,1,1,1h5.3C8.1,13.5,8,13,8,12.5c0-1.3,0.6-2.5,1.5-3.4C9.1,9,8.6,9,8,9C3,9,2,12,2,13"/>
</svg>
