<?xml version="1.0" encoding="utf-8"?>
<!-- Generator: Adobe Illustrator 26.0.0, SVG Export Plug-In . SVG Version: 6.00 Build 0)  -->
<svg version="1.1" id="Capa_1" xmlns="http://www.w3.org/2000/svg" xmlns:xlink="http://www.w3.org/1999/xlink" x="0px" y="0px"
	 viewBox="0 0 800 800" style="enable-background:new 0 0 800 800;" xml:space="preserve">
<style type="text/css">
	.st0{fill-rule:evenodd;clip-rule:evenodd;fill:#25CC68;}
</style>
<path class="st0" d="M303.9,686.5c7.6,14.3,15.3,27.2,22.6,38.7c-77.8-17.5-145.3-62.2-192-123.5c30.8-17.4,70.3-35.3,117.7-48.5
	C265.8,606.1,284.9,650.8,303.9,686.5z M362.7,655.1c-16.6-31.1-33.2-69.8-45.1-115.8c25.7-3.8,53.2-6,82.4-6
	c29.1,0,56.6,2.2,82.4,6c-12,46-28.6,84.7-45.1,115.8C424,680,410.7,699.9,400,714.5C389.3,699.9,376,680,362.7,655.1z M300,400
	c0,26,1.7,50.6,4.8,73.9c29.7-4.6,61.5-7.2,95.2-7.2c33.7,0,65.5,2.6,95.2,7.2c3.1-23.3,4.8-47.9,4.8-73.9s-1.7-50.6-4.8-73.9
	c-29.7,4.6-61.5,7.2-95.2,7.2c-33.7,0-65.5-2.6-95.2-7.2C301.7,349.4,300,374,300,400z M239.4,312.4c-3.9,27.5-6.1,56.7-6.1,87.6
	s2.2,60.1,6.1,87.6c-56.6,15.2-103.5,36.6-139.7,57.2c-21.2-43.8-33-92.9-33-144.8s11.9-101,33-144.8
	C135.9,275.8,182.8,297.2,239.4,312.4z M317.6,260.6c25.7,3.8,53.2,6,82.4,6c29.1,0,56.6-2.2,82.4-6c-12-46-28.6-84.7-45.1-115.8
	C424,120,410.7,100.1,400,85.5c-10.7,14.5-24,34.4-37.3,59.3C346.2,175.9,329.6,214.7,317.6,260.6z M560.6,312.4
	c3.9,27.5,6.1,56.7,6.1,87.6c0,30.9-2.2,60.1-6.1,87.6c56.6,15.2,103.5,36.6,139.7,57.2c21.2-43.8,33-92.9,33-144.8
	s-11.9-101-33-144.8C664.1,275.8,617.2,297.2,560.6,312.4z M665.4,198.3c-30.8,17.4-70.3,35.3-117.7,48.5
	c-13.5-52.9-32.5-97.6-51.6-133.3c-7.6-14.3-15.3-27.2-22.6-38.7C551.2,92.3,618.7,136.9,665.4,198.3z M252.3,246.8
	c-47.5-13.2-86.9-31.2-117.7-48.5c46.7-61.4,114.2-106,191.9-123.5c-7.3,11.4-15,24.4-22.6,38.7
	C284.9,149.2,265.8,193.9,252.3,246.8z M547.7,553.2c-13.5,52.9-32.5,97.6-51.6,133.3c-7.6,14.3-15.3,27.2-22.6,38.7
	c77.8-17.5,145.3-62.2,192-123.5C634.6,584.3,595.1,566.4,547.7,553.2z M400,800c220.9,0,400-179.1,400-400C800,179.1,620.9,0,400,0
	C179.1,0,0,179.1,0,400C0,620.9,179.1,800,400,800z"/>
</svg>
